<?xml version="1.0" encoding="UTF-8" standalone="no"?>
<svg width="336px" height="336px" viewBox="0 0 336 336" version="1.1" xmlns="http://www.w3.org/2000/svg" xmlns:xlink="http://www.w3.org/1999/xlink">
    <!-- Generator: Sketch 41.2 (35397) - http://www.bohemiancoding.com/sketch -->
    <title>cutout-black</title>
    <desc>Created with Sketch.</desc>
    <defs></defs>
    <g id="Page-1" stroke="none" stroke-width="1" fill="none" fill-rule="evenodd">
        <g id="cutout-black" fill="#000000">
            <g id="Page-1">
                <path d="M200.772621,125.734783 C192.428206,120.473913 181.973709,117.508696 169.600956,117.508696 C158.18733,117.508696 146.965531,120.76087 137.278336,126.786957 C115.122475,109.473913 118.479424,75.9 118.479424,75.9 C93.9257421,123.630435 119.72629,142.282609 120.301767,142.76087 C113.491957,152.517391 109.271793,164.856522 109.271793,179.3 C109.271793,218.03913 137.7579,240.9 173.245643,240.9 C191.373165,240.9 206.815129,234.873913 219.09197,227.221739 L210.651642,212.108696 C200.005319,218.326087 189.16717,222.247826 176.410766,222.247826 C152.7203,222.247826 135.36008,208.569565 133.921387,185.421739 L222.736657,185.421739 C223.216221,182.552174 223.983523,177.96087 223.983523,173.178261 C223.983523,161.604348 221.48979,151.273913 216.694149,142.76087 C218.996057,140.943478 241.91922,121.813043 218.324667,75.9 C218.324667,75.9 221.48979,108.230435 200.772621,125.734783 Z M133.9,166.9 C137.060563,146.408772 152.671831,134.9 170.294366,134.9 C190.502817,134.9 201.9,146.408772 201.9,166.9 L133.9,166.9 Z M168,0.9 C75.8,0.9 0.9,75.9 0.9,168 C0.9,260.2 75.9,335.1 168,335.1 C260.2,335.1 335.1,260.1 335.1,168 C335.1,75.8 260.2,0.9 168,0.9 Z" id="Shape"></path>
            </g>
        </g>
    </g>
</svg>