<?xml version="1.0" encoding="UTF-8" standalone="no"?>
<svg width="336px" height="336px" viewBox="0 0 336 336" version="1.1" xmlns="http://www.w3.org/2000/svg" xmlns:xlink="http://www.w3.org/1999/xlink">
    <!-- Generator: Sketch 41.2 (35397) - http://www.bohemiancoding.com/sketch -->
    <title>cutout-pink</title>
    <desc>Created with Sketch.</desc>
    <defs></defs>
    <g id="Page-1" stroke="none" stroke-width="1" fill="none" fill-rule="evenodd">
        <g id="cutout-pink" fill="#D81D4E">
            <g id="Page-1">
                <g id="cutout-pink">
                    <g id="Page-1">
                        <path d="M201.540164,124.734783 C193.126787,119.473913 182.585889,116.508695 170.110881,116.508695 C158.602928,116.508695 147.288386,119.76087 137.521132,125.786956 C115.182165,108.473913 118.566857,74.9 118.566857,74.9 C93.8102523,122.630435 119.824028,141.282608 120.404261,141.760869 C113.538172,151.517391 109.28313,163.856522 109.28313,178.3 C109.28313,217.03913 138.00466,239.9 173.78569,239.9 C192.063026,239.9 207.63261,233.873913 220.010912,226.221739 L211.500829,211.108696 C200.76652,217.326087 189.838801,221.247826 176.97697,221.247826 C153.090715,221.247826 135.587022,207.569565 134.13644,184.421739 L223.68572,184.421739 C224.169248,181.552174 224.942891,176.96087 224.942891,172.178261 C224.942891,160.604347 222.428549,150.273913 217.593275,141.760869 C219.914206,139.943478 243.026817,120.813043 219.237268,74.9 C219.237268,74.9 222.428549,107.230435 201.540164,124.734783 Z M132.9,168.9 C136.060563,147.12807 151.671831,134.9 169.294366,134.9 C189.502817,134.9 200.9,147.12807 200.9,168.9 L132.9,168.9 Z M168,0.9 C75.8,0.9 0.9,75.9 0.9,168 C0.9,260.2 75.9,335.1 168,335.1 C260.2,335.1 335.1,260.1 335.1,168 C335.1,75.8 260.2,0.9 168,0.9 Z" id="Shape"></path>
                    </g>
                </g>
            </g>
        </g>
    </g>
</svg>