<?xml version="1.0" encoding="UTF-8" standalone="no"?>
<svg width="336px" height="336px" viewBox="0 0 336 336" version="1.1" xmlns="http://www.w3.org/2000/svg" xmlns:xlink="http://www.w3.org/1999/xlink">
    <!-- Generator: Sketch 41.2 (35397) - http://www.bohemiancoding.com/sketch -->
    <title>Shape</title>
    <desc>Created with Sketch.</desc>
    <defs></defs>
    <g id="Page-1" stroke="none" stroke-width="1" fill="none" fill-rule="evenodd">
        <path d="M201.8,123.6 C193.1,118.1 182.2,115 169.3,115 C157.4,115 145.7,118.4 135.6,124.7 C112.5,106.6 116,71.5 116,71.5 C90.4,121.4 117.3,140.9 117.9,141.4 C110.8,151.6 106.4,164.5 106.4,179.6 C106.4,220.1 136.1,244 173.1,244 C192,244 208.1,237.7 220.9,229.7 L212.1,213.9 C201,220.4 189.7,224.5 176.4,224.5 C151.7,224.5 133.6,210.2 132.1,186 L224.7,186 C225.2,183 226,178.2 226,173.2 C226,161.1 223.4,150.3 218.4,141.4 C220.8,139.5 244.7,119.5 220.1,71.5 C220.1,71.5 223.4,105.3 201.8,123.6 Z M131.8,168.8 C135.1,146.9 151.4,134.6 169.8,134.6 C190.9,134.6 202.8,146.9 202.8,168.8 L131.8,168.8 Z M168,0.9 C75.8,0.9 0.9,75.9 0.9,168 C0.9,260.2 75.9,335.1 168,335.1 C260.2,335.1 335.1,260.1 335.1,168 C335.1,75.8 260.2,0.9 168,0.9 Z" id="Shape" fill="#D81D4E"></path>
    </g>
</svg>
